<?xml version="1.0" encoding="UTF-8" standalone="no"?>
<!DOCTYPE svg PUBLIC "-//W3C//DTD SVG 1.1//EN" "http://www.w3.org/Graphics/SVG/1.1/DTD/svg11.dtd">
<svg width="800.00" height="600.00" viewBox="0.00 0.00 800.00 600.00" xmlns="http://www.w3.org/2000/svg" xmlns:xlink="http://www.w3.org/1999/xlink">
<g stroke-linecap="round" id="にっこり_のコピー">
<path d="M-94.00,316.00" fill="none" stroke="rgb(255, 255, 255)" stroke-width="10.80" stroke-opacity="1.00" stroke-linejoin="round"/>
<path d="M9.00,34.00" fill="none" stroke="rgb(255, 255, 255)" stroke-width="10.80" stroke-opacity="1.00" stroke-linejoin="round"/>
<path d="M527.49,278.76 C527.29,278.11 527.11,275.89 527.14,273.86 C527.19,271.24 528.61,265.18 530.09,261.64 C531.26,258.88 534.63,252.69 535.94,250.88 C537.55,248.70 540.96,245.94 543.41,244.75 C545.38,243.83 549.71,243.32 553.45,243.40 C555.09,243.46 558.56,244.05 560.09,244.65 C563.27,245.94 566.75,249.65 570.06,253.63 C572.22,256.30 575.88,260.73 577.39,262.49 C578.38,263.71 581.28,269.33 582.68,272.08 C584.24,275.13 585.83,275.48 585.98,275.65 C585.98,275.65 585.53,274.64 585.53,274.64" fill="none" stroke="rgb(0, 0, 0)" stroke-width="8.70" stroke-opacity="1.00" stroke-linejoin="round"/>
<path d="M653.17,269.33 C653.18,268.91 653.18,268.57 653.17,268.32 C653.05,262.62 654.71,249.81 656.99,245.53 C658.06,243.60 660.58,240.50 662.02,239.48 C663.56,238.44 674.40,234.54 674.99,234.36 C677.51,233.57 682.66,232.97 684.45,233.44 C685.72,233.79 692.84,237.53 693.71,238.11 C695.35,239.23 698.41,243.09 700.47,246.90 C704.94,255.21 706.69,261.21 707.09,262.10 C707.09,262.10 706.07,261.09 706.07,261.09" fill="none" stroke="rgb(0, 0, 0)" stroke-width="8.70" stroke-opacity="1.00" stroke-linejoin="round"/>
<path d="M597.94,326.82 C598.25,328.70 600.79,332.79 603.01,334.61 C605.02,336.24 612.12,340.62 613.35,341.01 C615.46,341.64 624.81,341.74 626.93,341.56 C630.35,341.26 636.21,339.14 638.37,337.95 C640.66,336.65 644.34,333.54 645.28,331.47 C645.56,330.81 647.61,326.76 647.83,326.00 C648.08,325.15 648.21,321.44 648.29,319.77 C648.32,319.90 648.26,320.08 648.09,320.32 C647.92,320.57 647.41,321.21 646.56,322.25" fill="none" stroke="rgb(0, 0, 0)" stroke-width="8.70" stroke-opacity="1.00" stroke-linejoin="round"/>
<path d="M622.84,393.24 C615.68,393.23 595.50,393.25 595.12,393.22 C592.50,393.04 576.54,389.76 571.57,388.02 C546.07,378.99 540.28,375.99 537.85,374.93 C537.53,374.78 537.01,374.50 536.27,374.10" fill="none" stroke="rgb(255, 255, 255)" stroke-width="8.70" stroke-opacity="1.00" stroke-linejoin="round"/>
<path d="M623.05,389.67 C614.23,389.71 607.21,389.44 598.48,388.66 C592.40,388.07 575.57,385.08 572.08,383.79 C568.26,382.33 551.81,373.39 550.11,372.46 C544.54,369.38 532.26,360.44 528.16,357.00 C523.08,352.71 514.97,342.15 512.61,337.58 C507.88,328.33 504.91,317.95 503.34,312.25 C502.51,309.09 498.40,286.14 497.99,282.45 C497.73,280.12 497.40,263.16 497.30,255.70 C497.32,251.65 501.75,237.82 504.75,231.90 C507.95,225.83 514.41,213.83 518.42,208.85 C520.29,206.41 523.49,202.32 526.84,200.04 C531.37,197.00 543.62,190.01 549.51,187.24 C554.42,184.96 566.93,180.99 574.13,179.65 C581.15,178.33 599.14,174.08 602.95,173.74 C613.74,172.98 627.43,172.65 633.62,173.74 C637.64,174.47 660.76,181.37 661.34,181.57 C666.84,183.49 677.13,188.27 685.95,193.90 C696.39,200.71 699.44,202.89 708.07,209.62 C716.68,216.40 723.03,222.57 725.63,226.06 C727.40,228.46 731.18,234.97 732.46,238.20 C734.67,243.85 738.30,258.48 739.92,265.70 C741.34,272.32 741.86,291.14 741.44,294.77 C740.76,300.20 738.38,307.01 733.42,319.01 C731.73,323.17 729.07,327.82 726.62,331.17 C722.23,336.98 712.29,349.39 707.44,354.12 C702.69,358.73 686.72,370.86 684.13,372.39 C682.13,373.57 663.72,382.81 658.88,384.41 C654.68,385.79 642.51,388.73 634.50,389.03 C630.73,389.16 618.33,388.76 617.50,388.71 C617.14,388.68 616.68,388.61 616.13,388.48" fill="none" stroke="rgb(0, 0, 0)" stroke-width="8.70" stroke-opacity="1.00" stroke-linejoin="round"/>
</g>
<g stroke-linecap="round" id="脚">
<path d="M110.74,335.48 C110.74,335.48 109.16,334.93 109.16,334.93 C108.88,331.72 109.28,328.14 110.46,322.89 C112.37,315.18 116.69,299.61 118.93,293.90 C122.19,285.66 145.10,244.43 146.76,242.19 C149.83,238.09 172.51,210.82 174.80,209.00 C177.61,206.84 182.74,204.68 186.97,203.58 C189.84,202.86 195.16,202.15 199.67,202.11 C204.08,202.12 213.24,202.17 213.88,202.27 C215.05,202.48 223.03,206.09 225.17,207.36 C230.02,210.27 241.42,220.78 246.14,226.43 C249.47,230.44 257.70,242.39 261.06,248.26 C263.74,252.95 284.22,297.37 284.77,298.81 C290.46,314.57 299.05,338.78 300.06,344.35 C300.08,342.92 300.08,342.04 300.06,341.72 C300.04,341.40 299.95,341.18 299.82,341.06" fill="none" stroke="rgb(0, 0, 0)" stroke-width="10.80" stroke-opacity="1.00" stroke-linejoin="round"/>
<path d="M302.05,343.58 C306.30,342.56 321.73,342.31 329.13,342.25 C343.97,341.98 371.85,341.18 386.87,341.50 C418.28,341.52 495.42,341.51 511.75,341.10 C512.25,341.09 512.76,341.07 513.27,341.06 C513.27,341.06 514.71,341.17 514.71,341.17" fill="none" stroke="rgb(0, 0, 0)" stroke-width="10.80" stroke-opacity="1.00" stroke-linejoin="round"/>
<path d="M109.65,341.72 C109.65,341.72 109.65,341.06 109.65,341.06 C103.67,340.85 98.15,340.90 94.89,341.87 C89.81,343.42 80.65,348.13 72.41,352.99 C64.44,357.73 56.21,364.49 53.64,366.71 C52.22,367.88 51.33,369.54 50.76,372.00 C50.60,372.73 50.20,375.77 50.15,376.54 C50.07,378.80 50.99,380.43 53.01,381.52 C59.64,384.96 66.27,386.26 79.90,388.30 C82.66,388.71 99.13,389.47 102.89,389.59 C114.74,389.86 118.18,389.77 129.71,388.11 C138.62,386.90 145.63,386.34 149.31,386.07 C148.83,385.82 148.36,385.66 147.91,385.57 C147.46,385.49 146.38,385.36 144.69,385.19" fill="none" stroke="rgb(0, 0, 0)" stroke-width="10.80" stroke-opacity="1.00" stroke-linejoin="round"/>
<path d="M154.42,381.58 C154.01,381.64 153.75,381.68 153.63,381.69 C153.51,381.70 153.37,381.70 153.20,381.69 C153.20,378.81 153.17,370.60 153.39,368.98 C153.52,368.00 159.53,350.78 161.66,343.23 C163.46,336.84 169.55,322.08 173.18,317.54 C174.49,315.91 181.32,309.24 182.71,308.36 C184.53,307.24 193.02,305.85 195.30,305.64 C198.33,305.37 204.84,305.42 207.28,306.52 C209.02,307.34 217.16,314.23 217.93,314.89 C218.24,315.15 232.36,330.68 236.52,335.04 C238.56,337.20 242.08,342.42 243.68,345.88 C246.39,351.82 249.18,361.85 251.73,373.27 C252.59,377.29 254.00,383.91 254.56,386.50 C254.43,385.56 254.28,384.98 254.13,384.75 C253.97,384.53 253.59,384.34 252.97,384.21" fill="none" stroke="rgb(0, 0, 0)" stroke-width="10.80" stroke-opacity="1.00" stroke-linejoin="round"/>
<path d="M255.72,389.02 C287.91,389.21 349.12,389.65 378.12,389.90 C405.90,390.04 466.67,390.09 499.66,389.99 C528.85,390.10 588.92,390.22 598.16,389.13" fill="none" stroke="rgb(0, 0, 0)" stroke-width="10.80" stroke-opacity="1.00" stroke-linejoin="round"/>
</g>
</svg>
