<?xml version="1.0" encoding="UTF-8" standalone="no"?>
<!DOCTYPE svg PUBLIC "-//W3C//DTD SVG 1.1//EN" "http://www.w3.org/Graphics/SVG/1.1/DTD/svg11.dtd">
<svg width="800.00" height="600.00" viewBox="0.00 0.00 800.00 600.00" xmlns="http://www.w3.org/2000/svg" xmlns:xlink="http://www.w3.org/1999/xlink">
<g stroke-linecap="round" id="にっこり">
<path d="M-94.00,315.00" fill="none" stroke="rgb(0, 0, 0)" stroke-width="10.80" stroke-opacity="1.00" stroke-linejoin="round"/>
<path d="M-94.00,316.00" fill="none" stroke="rgb(255, 255, 255)" stroke-width="10.80" stroke-opacity="1.00" stroke-linejoin="round"/>
<path d="M9.00,34.00" fill="none" stroke="rgb(255, 255, 255)" stroke-width="10.80" stroke-opacity="1.00" stroke-linejoin="round"/>
<path d="M281.62,286.83 C281.37,285.65 281.22,284.60 281.17,283.35 C281.09,280.29 281.95,273.88 282.86,270.98 C284.50,265.94 290.86,253.37 294.06,249.85 C296.04,247.72 301.75,244.25 303.87,243.66 C306.44,242.99 314.83,242.85 317.37,243.23 C320.82,243.79 326.45,246.56 329.13,249.35 C331.10,251.43 344.69,267.91 346.67,271.72 C348.41,275.13 352.09,282.33 352.80,282.51 C353.09,282.57 353.87,282.56 354.25,282.97 C354.25,282.97 353.68,281.72 353.68,281.72" fill="none" stroke="rgb(0, 0, 0)" stroke-width="10.80" stroke-opacity="1.00" stroke-linejoin="round"/>
<path d="M437.68,275.12 C437.69,274.60 437.69,274.18 437.68,273.87 C437.59,269.73 437.81,264.59 438.34,260.36 C438.85,256.48 441.03,248.33 442.42,245.56 C443.99,242.55 448.58,237.82 451.26,236.60 C451.75,236.38 459.58,233.56 462.29,232.55 C465.11,231.51 471.28,230.15 473.80,230.20 C476.37,230.30 480.82,232.38 485.25,234.73 C488.56,236.56 491.74,239.67 493.26,241.92 C494.75,244.15 497.22,248.77 499.92,254.18 C502.75,260.06 504.16,265.07 504.63,266.14 C504.63,266.14 503.37,264.89 503.37,264.89" fill="none" stroke="rgb(0, 0, 0)" stroke-width="10.80" stroke-opacity="1.00" stroke-linejoin="round"/>
<path d="M369.09,346.52 C369.49,348.84 372.67,353.97 375.39,356.19 C377.76,358.09 383.97,361.98 385.58,362.89 C388.34,364.40 393.04,364.94 398.39,365.01 C403.85,364.93 409.50,364.40 412.61,363.28 C416.62,361.81 422.15,358.72 424.11,357.09 C426.76,354.81 428.54,350.77 430.15,348.02 C431.19,345.99 431.53,340.40 431.62,337.76 C431.66,337.92 431.58,338.14 431.37,338.44 C431.16,338.75 430.53,339.54 429.47,340.83" fill="none" stroke="rgb(0, 0, 0)" stroke-width="10.80" stroke-opacity="1.00" stroke-linejoin="round"/>
<path d="M400.02,428.99 C392.63,428.98 376.80,428.99 368.37,429.00 C363.81,429.01 344.08,424.98 342.81,424.62 C340.64,424.00 322.69,417.67 314.68,414.81 C304.24,410.95 297.49,407.68 294.48,406.25 C294.08,406.06 293.43,405.72 292.53,405.23" fill="none" stroke="rgb(255, 255, 255)" stroke-width="10.80" stroke-opacity="1.00" stroke-linejoin="round"/>
<path d="M400.27,424.55 C389.32,424.60 380.62,424.26 369.77,423.30 C362.06,422.53 345.83,419.65 344.39,419.35 C340.41,418.51 334.27,416.23 330.42,414.26 C324.36,410.92 310.19,403.51 306.93,401.59 C301.21,398.21 287.95,388.56 283.33,384.73 C277.27,379.68 268.81,369.52 266.59,366.12 C264.61,363.05 256.54,346.60 254.92,340.32 C253.27,334.37 250.65,324.65 248.31,312.20 C246.12,299.83 244.73,289.98 244.46,281.08 C244.33,273.55 244.09,255.11 244.60,252.66 C245.76,247.27 250.64,233.92 255.23,225.09 C258.71,218.53 265.74,205.51 268.83,201.91 C270.02,200.54 275.88,192.79 277.01,191.85 C279.54,189.79 298.83,178.15 303.34,175.89 C311.16,172.03 323.27,167.48 331.12,165.52 C331.30,165.48 352.31,161.17 360.32,159.29 C369.76,157.04 375.02,156.42 385.79,155.70 C393.92,155.28 409.38,155.43 417.12,157.20 C420.98,158.10 438.87,163.43 445.14,165.28 C448.27,166.24 463.23,172.34 466.90,174.39 C479.66,181.56 505.70,200.19 515.92,209.01 C520.47,212.96 529.16,222.92 532.90,229.63 C535.70,234.67 539.90,247.40 541.89,255.30 C543.52,262.37 546.86,277.41 547.26,283.88 C547.75,292.23 547.58,306.96 546.03,313.36 C544.50,319.57 539.00,332.82 536.51,338.84 C534.09,344.64 526.82,354.81 521.10,362.10 C514.14,370.80 506.59,379.17 501.22,384.01 C496.98,387.82 480.17,400.57 479.19,401.22 C476.66,402.88 460.97,411.02 454.31,414.20 C447.93,417.12 433.07,421.53 428.13,422.45 C420.30,423.87 401.57,423.86 393.39,423.36 C392.94,423.33 392.37,423.24 391.68,423.07" fill="none" stroke="rgb(0, 0, 0)" stroke-width="10.80" stroke-opacity="1.00" stroke-linejoin="round"/>
</g>
</svg>
